<svg width="22" height="20" viewBox="0 0 22 20" fill="none" xmlns="http://www.w3.org/2000/svg">
<path fill-rule="evenodd" clip-rule="evenodd" d="M0.0928956 0.579123C0.256754 0.225959 0.610687 0 1.00001 0H21C21.4045 0 21.7691 0.243642 21.9239 0.617317C22.0787 0.990991 21.9931 1.42111 21.7071 1.70711L16.8477 6.56648C16.4572 6.95701 15.8241 6.95701 15.4335 6.56648C15.043 6.17596 15.043 5.54279 15.4335 5.15227L18.5858 2H3.15532L9.76358 9.81427C9.91625 9.9948 10 10.2236 10 10.46V16.3345L13.4174 17.7651C13.9269 17.9783 14.167 18.5642 13.9537 19.0736C13.7404 19.5831 13.1546 19.8232 12.6451 19.6099L8.61388 17.9224C8.24204 17.7668 8.00001 17.4031 8.00001 17V10.8261L0.236443 1.64573C-0.0149541 1.34845 -0.0709627 0.932287 0.0928956 0.579123ZM12.2929 7.79289C12.6834 7.40237 13.3166 7.40237 13.7071 7.79289L16 10.0858L18.2929 7.79289C18.6834 7.40237 19.3166 7.40237 19.7071 7.79289C20.0976 8.18342 20.0976 8.81658 19.7071 9.20711L17.4142 11.5L19.7071 13.7929C20.0976 14.1834 20.0976 14.8166 19.7071 15.2071C19.3166 15.5976 18.6834 15.5976 18.2929 15.2071L16 12.9142L13.7071 15.2071C13.3166 15.5976 12.6834 15.5976 12.2929 15.2071C11.9024 14.8166 11.9024 14.1834 12.2929 13.7929L14.5858 11.5L12.2929 9.20711C11.9024 8.81658 11.9024 8.18342 12.2929 7.79289Z" fill="#5E5D5D"/>
</svg>
